PathFileType	4	(X/Y/Z)	../output/dynamic_cam2_scaled.trc
DataRate	CameraRate	NumFrames	NumMarkers	Units	OrigDataRate	OrigDataStartFrame	OrigNumFrames
60.0	60.0	82	3	m	60.0	628	784
Frame#	Time	r_acromion			r_humerus_epicondyle			r_radius_styloid		
		X1	Y1	Z1	X2	Y2	Z2	X3	Y3	Z3	

628	10.45000	0.00282	0.83388	0.16087	0.21227	0.73973	0.06203	0.49151	0.84376	0.17079
629	10.46667	0.00276	0.83390	0.15997	0.21175	0.73971	0.06021	0.48944	0.85116	0.16553
630	10.48333	0.00270	0.83395	0.15967	0.21131	0.73946	0.05940	0.48811	0.85430	0.16340
631	10.50000	0.00225	0.83396	0.15618	0.21067	0.73326	0.06174	0.45718	0.87435	0.20297
632	10.51667	0.00196	0.83395	0.15245	0.20910	0.73000	0.05869	0.44773	0.88102	0.20316
633	10.53333	0.00172	0.83392	0.14960	0.20794	0.72782	0.05624	0.44200	0.88169	0.20511
634	10.55000	0.00149	0.83391	0.14823	0.20623	0.72674	0.05287	0.43906	0.88127	0.20298
635	10.56667	0.00134	0.83395	0.14844	0.20866	0.72313	0.06336	0.42008	0.88386	0.23683
636	10.58333	0.00141	0.83397	0.14822	0.20485	0.71512	0.06462	0.39244	0.91263	0.22718
637	10.60000	0.00147	0.83397	0.14826	0.20317	0.71176	0.06531	0.38110	0.91666	0.22957
638	10.61667	0.00151	0.83398	0.14842	0.20280	0.70978	0.06746	0.37649	0.91549	0.23521
639	10.63333	0.00172	0.83398	0.14972	0.20353	0.70788	0.07311	0.37359	0.91172	0.24675
640	10.65000	0.00175	0.83381	0.14975	0.20284	0.70690	0.07257	0.36819	0.92244	0.23635
641	10.66667	0.00183	0.83373	0.14968	0.20154	0.70730	0.06824	0.36608	0.92868	0.22488
642	10.68333	0.00214	0.83365	0.16189	0.19126	0.70616	0.05952	0.33102	0.94014	0.22182
643	10.70000	0.00245	0.83356	0.16465	0.18837	0.70489	0.05799	0.32417	0.94814	0.20968
644	10.71667	0.00285	0.83346	0.16734	0.18624	0.70366	0.05770	0.32431	0.95642	0.19063
645	10.73333	0.00314	0.83326	0.16759	0.18702	0.70195	0.06061	0.32578	0.95719	0.18796
646	10.75000	0.00361	0.83315	0.16828	0.18541	0.70039	0.05954	0.32024	0.96174	0.17844
647	10.76667	0.00379	0.83306	0.16739	0.18512	0.69863	0.05993	0.31849	0.96096	0.17831
648	10.78333	0.00382	0.83296	0.16779	0.18455	0.69791	0.06011	0.31727	0.96119	0.17710
649	10.80000	0.00385	0.83286	0.16933	0.18613	0.69633	0.06622	0.30054	0.96202	0.19639
650	10.81667	0.00395	0.83282	0.16974	0.18737	0.69459	0.07099	0.29584	0.95935	0.20796
651	10.83333	0.00399	0.83279	0.17044	0.18720	0.69452	0.07137	0.29481	0.96145	0.20477
652	10.85000	0.00399	0.83264	0.17111	0.18683	0.69545	0.06987	0.28720	0.96813	0.19712
653	10.86667	0.00398	0.83253	0.17111	0.18667	0.69591	0.06885	0.28641	0.97500	0.18191
654	10.88333	0.00390	0.83249	0.17090	0.18680	0.69623	0.06853	0.28606	0.97797	0.17525
655	10.90000	0.00396	0.83235	0.17216	0.19146	0.69245	0.08399	0.27159	0.96382	0.22737
656	10.91667	0.00401	0.83228	0.17308	0.19175	0.69233	0.08552	0.26831	0.96653	0.22543
657	10.93333	0.00406	0.83223	0.17369	0.19126	0.69252	0.08461	0.26688	0.96874	0.22101
658	10.95000	0.00418	0.83218	0.17347	0.19164	0.69205	0.08561	0.25814	0.96933	0.22458
659	10.96667	0.00425	0.83217	0.17338	0.19157	0.69118	0.08658	0.25516	0.96893	0.22598
660	10.98333	0.00421	0.83174	0.15939	0.20438	0.68255	0.14609	0.24154	0.90816	0.36596
661	11.00000	0.00422	0.83157	0.16045	0.20432	0.68172	0.15893	0.23801	0.90900	0.37764
662	11.01667	0.00438	0.83145	0.16035	0.20357	0.68038	0.16109	0.23619	0.90772	0.37990
663	11.03333	0.00470	0.83143	0.16130	0.20269	0.67894	0.15434	0.23659	0.91491	0.36360
664	11.05000	0.00468	0.83134	0.16094	0.20248	0.67871	0.15228	0.23095	0.91399	0.36312
665	11.06667	0.00467	0.83133	0.16099	0.20243	0.67841	0.16399	0.23008	0.90844	0.38066
666	11.08333	0.00475	0.83132	0.16133	0.19943	0.68172	0.11425	0.21378	0.94986	0.28311
667	11.10000	0.00484	0.83132	0.16173	0.19727	0.68419	0.09989	0.20729	0.95522	0.26439
668	11.11667	0.00492	0.83131	0.16200	0.19667	0.68554	0.09503	0.20526	0.95708	0.25878
669	11.13333	0.00497	0.83130	0.16220	0.19771	0.68542	0.09842	0.20560	0.95266	0.26913
670	11.15000	0.00497	0.83131	0.16219	0.19764	0.68571	0.09753	0.19967	0.95615	0.26332
671	11.16667	0.00499	0.83132	0.16222	0.19714	0.68624	0.09491	0.19717	0.95763	0.25913
672	11.18333	0.00501	0.83132	0.16228	0.19722	0.68619	0.09525	0.19641	0.95734	0.25987
673	11.20000	0.00500	0.83135	0.16383	0.19715	0.68538	0.09846	0.18960	0.95718	0.26184
674	11.21667	0.00499	0.83134	0.16365	0.19815	0.68408	0.10445	0.18809	0.94539	0.28401
675	11.23333	0.00499	0.83134	0.16366	0.19970	0.68206	0.11568	0.18918	0.93593	0.30558
676	11.25000	0.00500	0.83134	0.16559	0.20075	0.68016	0.12916	0.18298	0.92922	0.32481
677	11.26667	0.00501	0.83132	0.16456	0.20100	0.67798	0.14061	0.18208	0.91921	0.34572
678	11.28333	0.00501	0.83132	0.16418	0.20050	0.67709	0.14195	0.18107	0.91956	0.34554
679	11.30000	0.00475	0.83111	0.16130	0.20113	0.67726	0.14491	0.17196	0.92346	0.34280
680	11.31667	0.00461	0.83077	0.15869	0.20176	0.67763	0.14526	0.17102	0.91824	0.34967
681	11.33333	0.00448	0.83049	0.15199	0.20185	0.67755	0.13953	0.17140	0.91506	0.34758
682	11.35000	0.00443	0.83024	0.14896	0.20171	0.67764	0.13178	0.17104	0.91765	0.33691
683	11.36667	0.00443	0.82996	0.15028	0.20228	0.67766	0.13763	0.16801	0.91061	0.35020
684	11.38333	0.00443	0.82949	0.14564	0.20066	0.68039	0.18762	0.16494	0.87650	0.43437
685	11.40000	0.00439	0.82935	0.14369	0.20053	0.68135	0.18979	0.16171	0.87779	0.43581
686	11.41667	0.00436	0.82926	0.14295	0.20083	0.68183	0.18945	0.16076	0.87737	0.43599
687	11.43333	0.00428	0.82926	0.14225	0.20150	0.68207	0.18632	0.15974	0.88147	0.42946
688	11.45000	0.00435	0.82922	0.14345	0.20243	0.68180	0.18258	0.15864	0.87911	0.42706
689	11.46667	0.00444	0.82921	0.14194	0.20489	0.68016	0.15213	0.15880	0.88008	0.39405
690	11.48333	0.00470	0.82917	0.14223	0.20497	0.67985	0.15206	0.15630	0.87566	0.39683
691	11.50000	0.00491	0.82912	0.14244	0.20514	0.67944	0.14017	0.15348	0.88041	0.38010
692	11.51667	0.00501	0.82907	0.14216	0.20516	0.67937	0.13678	0.15318	0.87970	0.37717
693	11.53333	0.00500	0.82906	0.14247	0.20510	0.67938	0.13507	0.15237	0.88075	0.37443
694	11.55000	0.00499	0.82895	0.14201	0.20532	0.67943	0.13885	0.15283	0.87891	0.37984
695	11.56667	0.00496	0.82885	0.14209	0.20548	0.67958	0.13905	0.15392	0.87507	0.38348
696	11.58333	0.00489	0.82878	0.14321	0.20439	0.68076	0.17133	0.15551	0.86562	0.42443
697	11.60000	0.00462	0.82875	0.14323	0.20486	0.68148	0.16995	0.15442	0.87045	0.41968
698	11.61667	0.00445	0.82871	0.14728	0.20242	0.68431	0.19685	0.15308	0.86664	0.45169
699	11.63333	0.00417	0.82870	0.15022	0.20146	0.68644	0.20799	0.15185	0.86777	0.46348
700	11.65000	0.00400	0.82869	0.15254	0.20209	0.68672	0.20824	0.15194	0.86923	0.46279
701	11.66667	0.00390	0.82869	0.15410	0.20118	0.68775	0.21508	0.15131	0.86930	0.47037
702	11.68333	0.00379	0.82868	0.15667	0.20054	0.68887	0.22180	0.15045	0.87084	0.47675
703	11.70000	0.00368	0.82867	0.15774	0.20050	0.68951	0.22404	0.15043	0.87098	0.47935
704	11.71667	0.00360	0.82867	0.16065	0.19873	0.69149	0.23553	0.14915	0.87078	0.49247
705	11.73333	0.00353	0.82866	0.16109	0.20075	0.69062	0.22853	0.15030	0.87272	0.48332
706	11.75000	0.00348	0.82865	0.16102	0.20184	0.69099	0.22585	0.15128	0.87342	0.48038
707	11.76667	0.00340	0.82864	0.16122	0.20175	0.69186	0.22789	0.15161	0.87317	0.48330
708	11.78333	0.00333	0.82862	0.16091	0.20217	0.69239	0.22725	0.15212	0.87328	0.48298
709	11.80000	0.00332	0.82858	0.16060	0.20277	0.69239	0.22520	0.15280	0.87323	0.48097
